<svg width="40" height="40" viewBox="0 0 40 40" fill="none" xmlns="http://www.w3.org/2000/svg">
<rect width="40" height="40" rx="8" fill="#343444"/>
<path d="M9.00195 20.0636C9.00312 25.0133 12.5804 29.2277 17.439 30.0034V22.9714H14.902V20.0636H17.442V17.8501C17.3284 16.8012 17.6845 15.7558 18.4136 14.9975C19.1427 14.2392 20.1693 13.8466 21.215 13.926C21.9655 13.9382 22.7141 14.0055 23.455 14.1273V16.6014H22.191C21.7558 16.5441 21.3183 16.6887 21.0017 16.9945C20.6851 17.3003 20.5237 17.7342 20.563 18.174V20.0636H23.334L22.891 22.9724H20.563V30.0034C25.8174 29.1679 29.502 24.3395 28.9475 19.0163C28.3929 13.693 23.7932 9.73835 18.4808 10.0173C13.1683 10.2963 9.0028 14.7112 9.00195 20.0636Z" fill="white"/>
</svg>
