<svg width="40" height="40" viewBox="0 0 40 40" fill="none" xmlns="http://www.w3.org/2000/svg">
<rect x="0.5" y="0.5" width="39" height="39" rx="7.5" fill="#343444" stroke="black"/>
<path d="M31.2254 9.67999L31.2259 9.68042C31.3069 9.74811 31.3962 9.85508 31.4501 10.0312C31.5049 10.2103 31.5322 10.491 31.4375 10.917L31.4373 10.917L31.4348 10.93L27.8665 29.2788C27.8585 29.2959 27.8475 29.3184 27.8332 29.3449C27.8013 29.4042 27.7544 29.4817 27.6909 29.5644C27.5627 29.7313 27.378 29.9056 27.1239 30.0088C26.9737 30.0695 26.8171 30.1 26.6511 30.1C26.4417 30.1 26.2071 30.0516 25.9439 29.9397L25.8836 29.904L21.117 26.2265L20.7837 25.9693L20.4735 26.2539L17.5227 28.9616C17.3516 29.0884 17.1322 29.1438 16.939 29.0701L16.9222 29.0637L16.905 29.0585C16.8661 29.0468 16.7922 28.9998 16.6982 28.8642L17.2016 27.5361L18.8057 23.3043L28.0219 13.1143L27.3559 12.3753L14.8014 21.5553L14.5151 21.7646L14.618 22.104L16.2556 27.504L16.6406 28.7738C16.6375 28.7685 16.6344 28.7631 16.6312 28.7577C16.5134 28.5522 16.4186 28.293 16.3393 28.0406C16.0978 27.2716 15.0684 23.8812 14.6578 22.5286C14.6236 22.416 14.5937 22.3175 14.5689 22.2359L14.4943 21.99L14.2509 21.9076L9.40195 20.2651C9.35358 20.2473 9.13741 20.1629 8.92581 19.9992C8.70772 19.8304 8.53975 19.6143 8.50537 19.3372L8.5053 19.3366C8.47249 19.0747 8.60096 18.8612 8.84415 18.6678C9.08885 18.4732 9.37022 18.3694 9.42063 18.352L9.43754 18.3462L9.45399 18.3392C10.2236 18.0115 28.6797 10.1799 29.9621 9.65377L30.0141 9.63311C30.5736 9.41088 31.0037 9.49396 31.2254 9.67999Z" fill="white" stroke="black"/>
</svg>
