<svg width="16" height="14" viewBox="0 0 16 14" fill="none" xmlns="http://www.w3.org/2000/svg">
<path d="M12.1663 0.75H3.83301C1.76634 0.75 0.0830078 2.43333 0.0830078 4.5H15.9163C15.9163 2.43333 14.233 0.75 12.1663 0.75ZM0.0830078 6.16667V9.5C0.0830078 11.5667 1.76634 13.25 3.83301 13.25H12.1663C14.233 13.25 15.9163 11.5667 15.9163 9.5V6.16667H0.0830078ZM6.33301 10.3333H3.83301C3.37467 10.3333 2.99967 9.95833 2.99967 9.5C2.99967 9.04167 3.37467 8.66667 3.83301 8.66667H6.33301C6.79134 8.66667 7.16634 9.04167 7.16634 9.5C7.16634 9.95833 6.79134 10.3333 6.33301 10.3333Z" fill="white"/>
</svg>
