<svg width="18" height="16" viewBox="0 0 18 16" fill="none" xmlns="http://www.w3.org/2000/svg">
<path d="M13.9317 9.9335C13.7159 10.1427 13.6167 10.4452 13.6659 10.7418L14.4067 14.8418C14.4692 15.1893 14.3226 15.541 14.0317 15.7418C13.7467 15.9502 13.3676 15.9752 13.0567 15.8085L9.36591 13.8835C9.23758 13.8152 9.09508 13.7785 8.94925 13.7743H8.72341C8.64508 13.786 8.56841 13.811 8.49841 13.8493L4.80675 15.7835C4.62425 15.8752 4.41758 15.9077 4.21508 15.8752C3.72175 15.7818 3.39258 15.3118 3.47341 14.816L4.21508 10.716C4.26425 10.4168 4.16508 10.1127 3.94925 9.90016L0.940079 6.9835C0.688412 6.73933 0.600912 6.37266 0.715912 6.04183C0.827579 5.71183 1.11258 5.471 1.45675 5.41683L5.59841 4.816C5.91341 4.7835 6.19008 4.59183 6.33175 4.3085L8.15674 0.566829C8.20008 0.483496 8.25591 0.406829 8.32341 0.341829L8.39841 0.283496C8.43758 0.240163 8.48258 0.204329 8.53258 0.175163L8.62341 0.141829L8.76508 0.0834961H9.11591C9.42924 0.115996 9.70508 0.303496 9.84925 0.583496L11.6984 4.3085C11.8317 4.581 12.0909 4.77016 12.3901 4.816L16.5317 5.41683C16.8817 5.46683 17.1742 5.7085 17.2901 6.04183C17.3992 6.376 17.3051 6.74266 17.0484 6.9835L13.9317 9.9335Z" fill="white"/>
</svg>
