<svg width="16" height="16" viewBox="0 0 16 16" fill="none" xmlns="http://www.w3.org/2000/svg">
<path d="M15.9163 12.7V13.125C15.9163 13.7417 15.708 14.3334 15.3247 14.8084C15.183 14.9917 14.9497 15.0834 14.708 15.0834H12.4747C12.8163 14.4918 12.9997 13.8167 12.9997 13.125V12.7C12.9997 11.5 12.558 10.3918 11.808 9.55017C11.8663 9.53351 11.9163 9.5001 11.9663 9.4751C12.3497 9.25843 12.8247 9.1918 13.2747 9.30013C14.8247 9.6918 15.9163 11.0833 15.9163 12.7ZM10.083 0.916748C9.81634 0.916748 9.55801 0.941829 9.30801 1.00016C10.2997 1.9085 10.9163 3.21675 10.9163 4.66675C10.9163 6.11675 10.2997 7.425 9.30801 8.33333C9.55801 8.39167 9.81634 8.41675 10.083 8.41675C12.1497 8.41675 13.833 6.73342 13.833 4.66675C13.833 2.60008 12.1497 0.916748 10.083 0.916748ZM5.91634 0.916748C3.84967 0.916748 2.16634 2.60008 2.16634 4.66675C2.16634 6.73342 3.84967 8.41675 5.91634 8.41675C7.98301 8.41675 9.66634 6.73342 9.66634 4.66675C9.66634 2.60008 7.98301 0.916748 5.91634 0.916748ZM9.10802 9.30013C8.95802 9.2668 8.81633 9.25008 8.66633 9.25008C8.358 9.25008 8.05802 9.3251 7.79968 9.4751C7.21635 9.79177 6.56634 9.95016 5.91634 9.95016C5.26634 9.95016 4.62468 9.79177 4.04968 9.48344C3.77468 9.33344 3.46634 9.25008 3.15801 9.25008C3.02468 9.25008 2.89966 9.26679 2.77466 9.29179C1.19132 9.65846 0.0830078 11.0667 0.0830078 12.7V13.125C0.0830078 13.7417 0.291359 14.3334 0.674693 14.8084C0.81636 14.9917 1.04968 15.0834 1.29135 15.0834H10.5413C10.783 15.0834 11.0163 14.9917 11.158 14.8084C11.5413 14.3334 11.7497 13.7417 11.7497 13.125V12.7C11.7497 11.0833 10.658 9.6918 9.10802 9.30013Z" fill="white"/>
</svg>
