<svg width="16" height="16" viewBox="0 0 16 16" fill="none" xmlns="http://www.w3.org/2000/svg">
<path d="M15.8078 6.8016C15.012 10.8816 10.8295 13.7474 9.06867 14.7907C8.73867 14.9849 8.36952 15.0833 8.00035 15.0833C7.63119 15.0833 7.26201 14.9857 6.93201 14.7907C5.17034 13.7474 0.987857 10.8824 0.192024 6.8016C-0.140476 5.09576 0.312026 3.28732 1.40286 1.96232C2.40119 0.750654 3.78869 0.083252 5.31036 0.083252C6.26786 0.083252 7.19202 0.325747 8.00035 0.78658C8.80869 0.325747 9.73285 0.083252 10.6903 0.083252C12.212 0.083252 13.5995 0.750654 14.5978 1.96232C15.6878 3.28732 16.1403 5.09576 15.8078 6.8016Z" fill="white"/>
</svg>
