<svg width="16" height="16" viewBox="0 0 16 16" fill="none" xmlns="http://www.w3.org/2000/svg">
<path d="M7.99967 0.083252C3.63301 0.083252 0.0830078 3.63325 0.0830078 7.99992C0.0830078 12.3666 3.63301 15.9166 7.99967 15.9166C12.3663 15.9166 15.9163 12.3666 15.9163 7.99992C15.9163 3.63325 12.3663 0.083252 7.99967 0.083252ZM8.83301 12.1666H7.16634C6.70801 12.1666 6.33301 11.7916 6.33301 11.3333C6.33301 10.8749 6.70801 10.4999 7.16634 10.4999H8.83301C9.29134 10.4999 9.66634 10.8749 9.66634 11.3333C9.66634 11.7916 9.29134 12.1666 8.83301 12.1666ZM10.083 8.83325H5.91634C5.45801 8.83325 5.08301 8.45825 5.08301 7.99992C5.08301 7.54158 5.45801 7.16658 5.91634 7.16658H10.083C10.5413 7.16658 10.9163 7.54158 10.9163 7.99992C10.9163 8.45825 10.5413 8.83325 10.083 8.83325ZM11.333 5.49992H4.66634C4.20801 5.49992 3.83301 5.12492 3.83301 4.66658C3.83301 4.20825 4.20801 3.83325 4.66634 3.83325H11.333C11.7913 3.83325 12.1663 4.20825 12.1663 4.66658C12.1663 5.12492 11.7913 5.49992 11.333 5.49992Z" fill="white"/>
</svg>
