<svg width="18" height="18" viewBox="0 0 18 18" fill="none" xmlns="http://www.w3.org/2000/svg">
<path fill-rule="evenodd" clip-rule="evenodd" d="M10.7681 8.36102H13.0746C13.4243 8.36102 13.6991 8.07187 13.6991 7.7232C13.6991 7.36602 13.4243 7.08538 13.0746 7.08538H10.7681C10.4183 7.08538 10.1436 7.36602 10.1436 7.7232C10.1436 8.07187 10.4183 8.36102 10.7681 8.36102ZM15.8141 3.93966C16.3221 3.93966 16.6551 4.11825 16.9882 4.50944C17.3213 4.90064 17.3796 5.46192 17.3046 5.97132L16.5136 11.5501C16.3637 12.6225 15.4644 13.4125 14.4069 13.4125H5.32232C4.21485 13.4125 3.29889 12.546 3.2073 11.4234L2.44123 2.15292L1.18387 1.93181C0.850801 1.87228 0.617649 1.54061 0.675937 1.20044C0.734225 0.852619 1.05897 0.622154 1.40037 0.67403L3.38632 0.979332C3.66944 1.03121 3.87761 1.26848 3.90259 1.55762L4.0608 3.46257C4.08578 3.73556 4.30228 3.93966 4.56874 3.93966H15.8141ZM5.18891 14.7566C4.48946 14.7566 3.92323 15.3349 3.92323 16.0493C3.92323 16.7551 4.48946 17.3334 5.18891 17.3334C5.88004 17.3334 6.44626 16.7551 6.44626 16.0493C6.44626 15.3349 5.88004 14.7566 5.18891 14.7566ZM14.5566 14.7566C13.8572 14.7566 13.2909 15.3349 13.2909 16.0493C13.2909 16.7551 13.8572 17.3334 14.5566 17.3334C15.2478 17.3334 15.814 16.7551 15.814 16.0493C15.814 15.3349 15.2478 14.7566 14.5566 14.7566Z" fill="white"/>
</svg>
