<svg width="16" height="16" viewBox="0 0 16 16" fill="none" xmlns="http://www.w3.org/2000/svg">
<path d="M15.183 6.22425L14.6997 5.74085C14.4663 5.50752 14.333 5.1908 14.333 4.85747V4.17408C14.333 2.79075 13.208 1.66574 11.8247 1.66574H11.1414C10.808 1.66574 10.4914 1.54079 10.258 1.29912L9.77468 0.815722C8.79968 -0.159277 7.208 -0.159277 6.22467 0.815722L5.74132 1.29912C5.50799 1.54079 5.19133 1.66574 4.85799 1.66574H4.17465C2.79132 1.66574 1.66636 2.79075 1.66636 4.17408V4.85747C1.66636 5.1908 1.54136 5.50752 1.29969 5.74085L0.816345 6.22425C0.341345 6.69925 0.0830078 7.33249 0.0830078 7.99915C0.0830078 8.66582 0.341345 9.29905 0.816345 9.77405L1.29969 10.2575C1.54136 10.4908 1.66636 10.8075 1.66636 11.1408V11.8242C1.66636 13.2076 2.79132 14.3326 4.17465 14.3326H4.85799C5.19133 14.3326 5.50799 14.4575 5.74132 14.6992L6.22467 15.1826C6.71634 15.6742 7.35801 15.9158 7.99967 15.9158C8.64134 15.9158 9.28301 15.6742 9.77468 15.1826L10.258 14.6992C10.4914 14.4575 10.808 14.3326 11.1414 14.3326H11.8247C13.208 14.3326 14.333 13.2076 14.333 11.8242V11.1408C14.333 10.8075 14.4663 10.4908 14.6997 10.2575L15.183 9.77405C15.658 9.29905 15.9163 8.66582 15.9163 7.99915C15.9163 7.33249 15.658 6.69925 15.183 6.22425ZM5.91634 4.87415C6.49134 4.87415 6.95801 5.34082 6.95801 5.91582C6.95801 6.49082 6.49134 6.95749 5.91634 6.95749C5.34134 6.95749 4.87467 6.49082 4.87467 5.91582C4.87467 5.34082 5.34134 4.87415 5.91634 4.87415ZM10.083 11.1242C9.50801 11.1242 9.04134 10.6575 9.04134 10.0825C9.04134 9.50749 9.50801 9.04082 10.083 9.04082C10.658 9.04082 11.1247 9.50749 11.1247 10.0825C11.1247 10.6575 10.658 11.1242 10.083 11.1242ZM11.0914 6.09079L6.09136 11.0908C5.92469 11.2491 5.71634 11.3325 5.49967 11.3325C5.29134 11.3325 5.07466 11.2491 4.90799 11.0908C4.58299 10.7658 4.58299 10.2325 4.90799 9.90752L9.90799 4.90752C10.2413 4.58252 10.7664 4.58252 11.0914 4.90752C11.4164 5.23252 11.4164 5.76579 11.0914 6.09079Z" fill="white"/>
</svg>
