<svg width="18" height="16" viewBox="0 0 18 16" fill="none" xmlns="http://www.w3.org/2000/svg">
<path fill-rule="evenodd" clip-rule="evenodd" d="M6.99942 7.39033C6.64853 7.39033 6.37107 7.6595 6.37107 7.99992C6.37107 8.33242 6.64853 8.6095 6.99942 8.6095H11.8956V12.3937C11.8956 14.3333 10.2717 15.9166 8.26427 15.9166H4.29019C2.2909 15.9166 0.666992 14.3412 0.666992 12.4016V3.60617C0.666992 1.65867 2.29906 0.083252 4.29835 0.083252H8.2806C10.2717 0.083252 11.8956 1.65867 11.8956 3.59825V7.39033H6.99942ZM14.8072 5.26092L17.1492 7.56467C17.2695 7.68342 17.3337 7.83383 17.3337 8.00008C17.3337 8.15842 17.2695 8.31675 17.1492 8.42758L14.8072 10.7313C14.6869 10.8501 14.5265 10.9134 14.3741 10.9134C14.2137 10.9134 14.0533 10.8501 13.933 10.7313C13.6924 10.4938 13.6924 10.1059 13.933 9.86842L15.2163 8.60967H11.8958V7.3905H15.2163L13.933 6.13175C13.6924 5.89425 13.6924 5.50633 13.933 5.26883C14.1736 5.02342 14.5666 5.02342 14.8072 5.26092Z" fill="white"/>
</svg>
