<svg width="28" height="28" viewBox="0 0 28 28" fill="none" xmlns="http://www.w3.org/2000/svg">
<g clip-path="url(#clip0_201_1114)">
<path d="M15.5018 18.208L16.7719 16.0081C19.6056 11.1 19.241 6.93672 18.9644 5.41039C18.9351 5.24485 18.8342 5.10183 18.6899 5.01705C18.5447 4.93251 18.3707 4.916 18.2117 4.97134C16.7383 5.48437 12.9081 7.22727 10.0719 12.1398L8.80142 14.3403L8.23711 14.3794C7.14896 14.4556 6.16906 15.0678 5.6233 16.0131L4.10734 18.6388C4.01756 18.7943 4.02037 18.9876 4.11469 19.1409C4.20988 19.294 4.38135 19.3818 4.56086 19.3695L6.38816 19.2526C6.90103 19.2202 7.41204 19.3391 7.85737 19.5962L8.82773 20.1565L8.09308 21.4289C7.95793 21.663 8.03802 21.9619 8.27155 22.0968L9.04851 22.5453C9.28205 22.6802 9.58096 22.6001 9.71611 22.366L10.4508 21.0935L11.4206 21.6535C11.8659 21.9106 12.2256 22.2929 12.4536 22.7552L13.2651 24.395C13.3443 24.5566 13.5061 24.6611 13.6862 24.6671C13.8661 24.6721 14.035 24.5779 14.1248 24.4223L15.6407 21.7966C16.1858 20.8525 16.2255 19.6974 15.7486 18.7162L15.5018 18.208ZM14.142 12.8273C13.336 12.362 13.0592 11.3304 13.5245 10.5245C13.9901 9.718 15.0216 9.44256 15.8275 9.90787C16.6329 10.3729 16.9101 11.4039 16.4445 12.2104C15.9792 13.0163 14.9474 13.2923 14.142 12.8273Z" fill="white"/>
</g>
<defs>
<clipPath id="clip0_201_1114">
<rect width="20" height="20" fill="white" transform="translate(10) rotate(30)"/>
</clipPath>
</defs>
</svg>
